<svg id="fav-svg" width="100" height="100" viewBox="0 0 100 100" xmlns="http://www.w3.org/2000/svg" data-fg-d3bl4="0.8:0.125:/src/app/App.tsx:61:7:2714:559:e:svg:xtxte" data-fgid-d3bl4=":r3r:"><g transform="scale(1) translate(0, 0)" data-fg-d3bl9="0.8:0.125:/src/app/App.tsx:65:9:3007:253:e:g:e"><path fill-rule="evenodd" clip-rule="evenodd" d="M 50 7 A 34 34 0 0 1 84 41 V 93 L 74 79 L 64 93 V 67 A 34 34 0 0 1 50 75 A 34 34 0 0 1 16 41 A 34 34 0 0 1 50 7 Z M 50 25 A 16 16 0 0 0 34 41 A 16 16 0 0 0 50 57 A 16 16 0 0 0 66 41 A 16 16 0 0 0 50 25 Z" fill="#E2C275" data-fg-d3bl10="0.8:0.125:/src/app/App.tsx:66:11:3154:93:e:path"/></g></svg>